<mxfile host="app.diagrams.net" modified="2020-12-11T06:15:20.324Z" agent="5.0 (Windows NT 10.0; Win64; x64) AppleWebKit/537.36 (KHTML, like Gecko) Chrome/87.0.4280.88 Safari/537.36" etag="noe0Rem2hAR4uSqFEQof" version="14.0.0" type="github" pages="2">
  <diagram id="kgpKYQtTHZ0yAKxKKP6v" name="Page-1">
    <mxGraphModel dx="2059" dy="637" grid="0" gridSize="10" guides="1" tooltips="1" connect="1" arrows="1" fold="1" page="1" pageScale="1" pageWidth="850" pageHeight="1100" math="0" shadow="0">
      <root>
        <mxCell id="0" />
        <mxCell id="1" parent="0" />
        <mxCell id="3nuBFxr9cyL0pnOWT2aG-1" value="User" style="shape=umlLifeline;perimeter=lifelinePerimeter;container=1;collapsible=0;recursiveResize=0;rounded=0;shadow=0;strokeWidth=1;fillColor=#dae8fc;strokeColor=#6c8ebf;" parent="1" vertex="1">
          <mxGeometry x="-49" y="83" width="100" height="409" as="geometry" />
        </mxCell>
        <mxCell id="3nuBFxr9cyL0pnOWT2aG-2" value="" style="points=[];perimeter=orthogonalPerimeter;rounded=0;shadow=0;strokeWidth=1;fontColor=#0000FF;" parent="3nuBFxr9cyL0pnOWT2aG-1" vertex="1">
          <mxGeometry x="45" y="70" width="10" height="265" as="geometry" />
        </mxCell>
        <mxCell id="3nuBFxr9cyL0pnOWT2aG-5" value="VChooseImage" style="shape=umlLifeline;perimeter=lifelinePerimeter;container=1;collapsible=0;recursiveResize=0;rounded=0;shadow=0;strokeWidth=1;fillColor=#dae8fc;strokeColor=#6c8ebf;" parent="1" vertex="1">
          <mxGeometry x="230" y="83" width="100" height="404" as="geometry" />
        </mxCell>
        <mxCell id="3nuBFxr9cyL0pnOWT2aG-6" value="" style="points=[];perimeter=orthogonalPerimeter;rounded=0;shadow=0;strokeWidth=1;fontColor=#0000FF;" parent="3nuBFxr9cyL0pnOWT2aG-5" vertex="1">
          <mxGeometry x="45" y="198" width="10" height="55" as="geometry" />
        </mxCell>
        <mxCell id="3nuBFxr9cyL0pnOWT2aG-10" value="" style="verticalAlign=bottom;endArrow=open;dashed=1;endSize=8;shadow=0;strokeWidth=1;" parent="1" edge="1">
          <mxGeometry x="-0.4774" y="-69" relative="1" as="geometry">
            <mxPoint x="285" y="284.5" as="targetPoint" />
            <mxPoint x="572" y="284.5" as="sourcePoint" />
            <Array as="points" />
            <mxPoint as="offset" />
          </mxGeometry>
        </mxCell>
        <mxCell id="cBmr4_ipBIWXXMOxJw-d-28" value="Gọi màn hình chọn hình" style="edgeLabel;html=1;align=center;verticalAlign=middle;resizable=0;points=[];fontColor=#0000FF;" vertex="1" connectable="0" parent="3nuBFxr9cyL0pnOWT2aG-10">
          <mxGeometry x="-0.0678" y="-2" relative="1" as="geometry">
            <mxPoint as="offset" />
          </mxGeometry>
        </mxCell>
        <mxCell id="_Tv3PjcK1uFJokNOjP6y-1" value="VQuestion" style="shape=umlLifeline;perimeter=lifelinePerimeter;container=1;collapsible=0;recursiveResize=0;rounded=0;shadow=0;strokeWidth=1;fillColor=#dae8fc;strokeColor=#6c8ebf;" vertex="1" parent="1">
          <mxGeometry x="375" y="83" width="100" height="401" as="geometry" />
        </mxCell>
        <mxCell id="_Tv3PjcK1uFJokNOjP6y-2" value="" style="points=[];perimeter=orthogonalPerimeter;rounded=0;shadow=0;strokeWidth=1;fontColor=#0000FF;" vertex="1" parent="_Tv3PjcK1uFJokNOjP6y-1">
          <mxGeometry x="45" y="122" width="10" height="49" as="geometry" />
        </mxCell>
        <mxCell id="_Tv3PjcK1uFJokNOjP6y-3" value="DBCauTL" style="shape=umlLifeline;perimeter=lifelinePerimeter;container=1;collapsible=0;recursiveResize=0;rounded=0;shadow=0;strokeWidth=1;fillColor=#dae8fc;strokeColor=#6c8ebf;" vertex="1" parent="1">
          <mxGeometry x="800" y="83" width="100" height="418" as="geometry" />
        </mxCell>
        <mxCell id="cBmr4_ipBIWXXMOxJw-d-20" value="" style="points=[];perimeter=orthogonalPerimeter;rounded=0;shadow=0;strokeWidth=1;fontColor=#0000FF;" vertex="1" parent="_Tv3PjcK1uFJokNOjP6y-3">
          <mxGeometry x="45" y="152" width="10" height="141" as="geometry" />
        </mxCell>
        <mxCell id="_Tv3PjcK1uFJokNOjP6y-17" value="Kiểm tra Data User" style="edgeStyle=orthogonalEdgeStyle;html=1;align=left;spacingLeft=2;endArrow=block;rounded=0;fontColor=#0000FF;" edge="1" parent="1">
          <mxGeometry x="1" y="-22" relative="1" as="geometry">
            <mxPoint x="702" y="550" as="sourcePoint" />
            <Array as="points">
              <mxPoint x="727" y="550" />
              <mxPoint x="727" y="600" />
            </Array>
            <mxPoint x="702" y="600" as="targetPoint" />
            <mxPoint x="-10" y="2" as="offset" />
          </mxGeometry>
        </mxCell>
        <mxCell id="_Tv3PjcK1uFJokNOjP6y-27" value="User bấm vào biểu tượng ống nghe" style="verticalAlign=bottom;endArrow=block;shadow=0;strokeWidth=1;fontColor=#0000FF;" edge="1" parent="1" target="_Tv3PjcK1uFJokNOjP6y-28">
          <mxGeometry x="-0.6821" relative="1" as="geometry">
            <mxPoint x="7" y="153" as="sourcePoint" />
            <mxPoint x="182" y="153" as="targetPoint" />
            <Array as="points">
              <mxPoint x="66" y="153" />
            </Array>
            <mxPoint as="offset" />
          </mxGeometry>
        </mxCell>
        <mxCell id="cBmr4_ipBIWXXMOxJw-d-11" value="Gửi yêu cầu chuyển sang màn hình câu hỏi" style="edgeLabel;html=1;align=center;verticalAlign=middle;resizable=0;points=[];fontColor=#0000FF;" vertex="1" connectable="0" parent="_Tv3PjcK1uFJokNOjP6y-27">
          <mxGeometry x="0.3388" relative="1" as="geometry">
            <mxPoint as="offset" />
          </mxGeometry>
        </mxCell>
        <mxCell id="_Tv3PjcK1uFJokNOjP6y-28" value="Control" style="shape=umlLifeline;perimeter=lifelinePerimeter;container=1;collapsible=0;recursiveResize=0;rounded=0;shadow=0;strokeWidth=1;fillColor=#dae8fc;strokeColor=#6c8ebf;" vertex="1" parent="1">
          <mxGeometry x="530" y="83" width="100" height="402" as="geometry" />
        </mxCell>
        <mxCell id="_Tv3PjcK1uFJokNOjP6y-29" value="" style="points=[];perimeter=orthogonalPerimeter;rounded=0;shadow=0;strokeWidth=1;fontColor=#0000FF;" vertex="1" parent="_Tv3PjcK1uFJokNOjP6y-28">
          <mxGeometry x="45" y="70" width="10" height="160" as="geometry" />
        </mxCell>
        <mxCell id="cBmr4_ipBIWXXMOxJw-d-2" value="MainScreen" style="shape=umlLifeline;perimeter=lifelinePerimeter;container=1;collapsible=0;recursiveResize=0;rounded=0;shadow=0;strokeWidth=1;fillColor=#dae8fc;strokeColor=#6c8ebf;" vertex="1" parent="1">
          <mxGeometry x="94" y="83" width="100" height="409" as="geometry" />
        </mxCell>
        <mxCell id="cBmr4_ipBIWXXMOxJw-d-3" value="" style="points=[];perimeter=orthogonalPerimeter;rounded=0;shadow=0;strokeWidth=1;fontColor=#0000FF;" vertex="1" parent="cBmr4_ipBIWXXMOxJw-d-2">
          <mxGeometry x="45" y="70" width="10" height="27" as="geometry" />
        </mxCell>
        <mxCell id="cBmr4_ipBIWXXMOxJw-d-7" value="Xử Lý Ảnh &amp; TL" style="shape=umlLifeline;perimeter=lifelinePerimeter;container=1;collapsible=0;recursiveResize=0;rounded=0;shadow=0;strokeWidth=1;fillColor=#dae8fc;strokeColor=#6c8ebf;" vertex="1" parent="1">
          <mxGeometry x="663" y="83" width="100" height="416" as="geometry" />
        </mxCell>
        <mxCell id="cBmr4_ipBIWXXMOxJw-d-8" value="" style="points=[];perimeter=orthogonalPerimeter;rounded=0;shadow=0;strokeWidth=1;fontColor=#0000FF;" vertex="1" parent="cBmr4_ipBIWXXMOxJw-d-7">
          <mxGeometry x="45" y="152" width="10" height="160" as="geometry" />
        </mxCell>
        <mxCell id="cBmr4_ipBIWXXMOxJw-d-10" value="return" style="verticalAlign=bottom;endArrow=open;dashed=1;endSize=8;shadow=0;strokeWidth=1;" edge="1" parent="1">
          <mxGeometry x="-1" y="66" relative="1" as="geometry">
            <mxPoint x="48" y="543" as="targetPoint" />
            <mxPoint x="188" y="563" as="sourcePoint" />
            <Array as="points">
              <mxPoint x="144" y="610" />
            </Array>
            <mxPoint x="10" y="-14" as="offset" />
          </mxGeometry>
        </mxCell>
        <mxCell id="cBmr4_ipBIWXXMOxJw-d-12" value="return" style="verticalAlign=bottom;endArrow=open;dashed=1;endSize=8;shadow=0;strokeWidth=1;" edge="1" parent="1">
          <mxGeometry x="1" y="370" relative="1" as="geometry">
            <mxPoint x="431" y="205" as="targetPoint" />
            <mxPoint x="571" y="205" as="sourcePoint" />
            <Array as="points" />
            <mxPoint x="-6" as="offset" />
          </mxGeometry>
        </mxCell>
        <mxCell id="cBmr4_ipBIWXXMOxJw-d-13" value="Gọi màn hình câu hỏi" style="edgeLabel;html=1;align=center;verticalAlign=middle;resizable=0;points=[];fontColor=#0000FF;" vertex="1" connectable="0" parent="cBmr4_ipBIWXXMOxJw-d-12">
          <mxGeometry x="0.154" y="3" relative="1" as="geometry">
            <mxPoint x="15" y="-15" as="offset" />
          </mxGeometry>
        </mxCell>
        <mxCell id="cBmr4_ipBIWXXMOxJw-d-14" value="return" style="verticalAlign=bottom;endArrow=open;dashed=1;endSize=8;shadow=0;strokeWidth=1;" edge="1" parent="1">
          <mxGeometry x="-0.7951" y="390" relative="1" as="geometry">
            <mxPoint x="9" y="206" as="targetPoint" />
            <mxPoint x="419" y="206" as="sourcePoint" />
            <Array as="points" />
            <mxPoint as="offset" />
          </mxGeometry>
        </mxCell>
        <mxCell id="cBmr4_ipBIWXXMOxJw-d-15" value="Show màn hình câu hỏi cho User" style="edgeLabel;html=1;align=center;verticalAlign=middle;resizable=0;points=[];fontColor=#0000FF;" vertex="1" connectable="0" parent="cBmr4_ipBIWXXMOxJw-d-14">
          <mxGeometry x="0.0526" relative="1" as="geometry">
            <mxPoint as="offset" />
          </mxGeometry>
        </mxCell>
        <mxCell id="cBmr4_ipBIWXXMOxJw-d-16" value="" style="endArrow=classic;html=1;fontColor=#0000FF;" edge="1" parent="1" source="3nuBFxr9cyL0pnOWT2aG-1">
          <mxGeometry width="50" height="50" relative="1" as="geometry">
            <mxPoint x="393" y="374" as="sourcePoint" />
            <mxPoint x="417" y="237" as="targetPoint" />
            <Array as="points">
              <mxPoint x="273" y="237" />
            </Array>
          </mxGeometry>
        </mxCell>
        <mxCell id="cBmr4_ipBIWXXMOxJw-d-17" value="Nhập câu TL cho câu hỏi" style="edgeLabel;html=1;align=center;verticalAlign=middle;resizable=0;points=[];fontColor=#0000FF;" vertex="1" connectable="0" parent="cBmr4_ipBIWXXMOxJw-d-16">
          <mxGeometry x="-0.0201" y="-2" relative="1" as="geometry">
            <mxPoint as="offset" />
          </mxGeometry>
        </mxCell>
        <mxCell id="cBmr4_ipBIWXXMOxJw-d-18" value="" style="endArrow=classic;html=1;fontColor=#0000FF;" edge="1" parent="1">
          <mxGeometry width="50" height="50" relative="1" as="geometry">
            <mxPoint x="430" y="236" as="sourcePoint" />
            <mxPoint x="705" y="236" as="targetPoint" />
            <Array as="points">
              <mxPoint x="498" y="236" />
            </Array>
          </mxGeometry>
        </mxCell>
        <mxCell id="cBmr4_ipBIWXXMOxJw-d-19" value="Gọi chức năng xử lý câu hỏi" style="edgeLabel;html=1;align=center;verticalAlign=middle;resizable=0;points=[];fontColor=#0000FF;" vertex="1" connectable="0" parent="cBmr4_ipBIWXXMOxJw-d-18">
          <mxGeometry x="-0.0747" y="-3" relative="1" as="geometry">
            <mxPoint as="offset" />
          </mxGeometry>
        </mxCell>
        <mxCell id="cBmr4_ipBIWXXMOxJw-d-21" value="" style="endArrow=classic;html=1;fontColor=#0000FF;" edge="1" parent="1">
          <mxGeometry width="50" height="50" relative="1" as="geometry">
            <mxPoint x="720" y="237" as="sourcePoint" />
            <mxPoint x="844" y="237" as="targetPoint" />
            <Array as="points">
              <mxPoint x="762" y="237" />
            </Array>
          </mxGeometry>
        </mxCell>
        <mxCell id="cBmr4_ipBIWXXMOxJw-d-22" value="Lưu vào DB" style="edgeLabel;html=1;align=center;verticalAlign=middle;resizable=0;points=[];fontColor=#0000FF;" vertex="1" connectable="0" parent="cBmr4_ipBIWXXMOxJw-d-21">
          <mxGeometry x="-0.0771" y="-2" relative="1" as="geometry">
            <mxPoint x="1" y="-6" as="offset" />
          </mxGeometry>
        </mxCell>
        <mxCell id="cBmr4_ipBIWXXMOxJw-d-23" value="" style="verticalAlign=bottom;endArrow=open;dashed=1;endSize=8;shadow=0;strokeWidth=1;" edge="1" parent="1">
          <mxGeometry x="-0.476" y="-61" relative="1" as="geometry">
            <mxPoint x="718" y="282" as="targetPoint" />
            <mxPoint x="841" y="282" as="sourcePoint" />
            <Array as="points" />
            <mxPoint as="offset" />
          </mxGeometry>
        </mxCell>
        <mxCell id="cBmr4_ipBIWXXMOxJw-d-24" value="Gửi phàn hồi" style="edgeLabel;html=1;align=center;verticalAlign=middle;resizable=0;points=[];fontColor=#0000FF;" vertex="1" connectable="0" parent="cBmr4_ipBIWXXMOxJw-d-23">
          <mxGeometry x="-0.1418" y="-1" relative="1" as="geometry">
            <mxPoint x="-8" y="-2" as="offset" />
          </mxGeometry>
        </mxCell>
        <mxCell id="cBmr4_ipBIWXXMOxJw-d-25" value="" style="verticalAlign=bottom;endArrow=open;dashed=1;endSize=8;shadow=0;strokeWidth=1;" edge="1" parent="1">
          <mxGeometry x="-0.476" y="-61" relative="1" as="geometry">
            <mxPoint x="586" y="283" as="targetPoint" />
            <mxPoint x="709" y="283" as="sourcePoint" />
            <Array as="points">
              <mxPoint x="632" y="283" />
            </Array>
            <mxPoint as="offset" />
          </mxGeometry>
        </mxCell>
        <mxCell id="cBmr4_ipBIWXXMOxJw-d-26" value="Gửi phàn hồi" style="edgeLabel;html=1;align=center;verticalAlign=middle;resizable=0;points=[];fontColor=#0000FF;" vertex="1" connectable="0" parent="cBmr4_ipBIWXXMOxJw-d-25">
          <mxGeometry x="-0.1418" y="-1" relative="1" as="geometry">
            <mxPoint x="-7" y="-2.5" as="offset" />
          </mxGeometry>
        </mxCell>
        <mxCell id="cBmr4_ipBIWXXMOxJw-d-27" value="return" style="verticalAlign=bottom;endArrow=open;dashed=1;endSize=8;shadow=0;strokeWidth=1;" edge="1" parent="1">
          <mxGeometry x="-1" y="292" relative="1" as="geometry">
            <mxPoint x="9" y="283" as="targetPoint" />
            <mxPoint x="272" y="283" as="sourcePoint" />
            <Array as="points" />
            <mxPoint x="57" y="-6" as="offset" />
          </mxGeometry>
        </mxCell>
        <mxCell id="cBmr4_ipBIWXXMOxJw-d-30" value="Show cho User" style="edgeLabel;html=1;align=center;verticalAlign=middle;resizable=0;points=[];fontColor=#0000FF;" vertex="1" connectable="0" parent="cBmr4_ipBIWXXMOxJw-d-27">
          <mxGeometry x="-0.1272" y="3" relative="1" as="geometry">
            <mxPoint x="-8" y="-5" as="offset" />
          </mxGeometry>
        </mxCell>
        <mxCell id="cBmr4_ipBIWXXMOxJw-d-29" value="" style="verticalAlign=bottom;endArrow=open;dashed=1;endSize=8;shadow=0;strokeWidth=1;" edge="1" parent="1">
          <mxGeometry x="1" y="-191" relative="1" as="geometry">
            <mxPoint x="534" y="621" as="targetPoint" />
            <mxPoint x="674" y="621" as="sourcePoint" />
            <Array as="points" />
            <mxPoint x="-169" y="102" as="offset" />
          </mxGeometry>
        </mxCell>
        <mxCell id="cBmr4_ipBIWXXMOxJw-d-31" value="" style="endArrow=classic;html=1;fontColor=#0000FF;" edge="1" parent="1">
          <mxGeometry width="50" height="50" relative="1" as="geometry">
            <mxPoint x="9" y="333" as="sourcePoint" />
            <mxPoint x="273" y="333" as="targetPoint" />
            <Array as="points">
              <mxPoint x="40" y="333" />
              <mxPoint x="98" y="333" />
              <mxPoint x="200" y="333" />
            </Array>
          </mxGeometry>
        </mxCell>
        <mxCell id="cBmr4_ipBIWXXMOxJw-d-32" value="Lưu vào DB" style="edgeLabel;html=1;align=center;verticalAlign=middle;resizable=0;points=[];fontColor=#0000FF;" vertex="1" connectable="0" parent="cBmr4_ipBIWXXMOxJw-d-31">
          <mxGeometry x="-0.0771" y="-2" relative="1" as="geometry">
            <mxPoint x="-186" y="375" as="offset" />
          </mxGeometry>
        </mxCell>
        <mxCell id="cBmr4_ipBIWXXMOxJw-d-33" value="User chọn hoặc chụp hình" style="edgeLabel;html=1;align=center;verticalAlign=middle;resizable=0;points=[];fontColor=#0000FF;" vertex="1" connectable="0" parent="cBmr4_ipBIWXXMOxJw-d-31">
          <mxGeometry x="-0.0362" y="2" relative="1" as="geometry">
            <mxPoint as="offset" />
          </mxGeometry>
        </mxCell>
        <mxCell id="cBmr4_ipBIWXXMOxJw-d-34" value="" style="endArrow=classic;html=1;fontColor=#0000FF;" edge="1" parent="1">
          <mxGeometry width="50" height="50" relative="1" as="geometry">
            <mxPoint x="287" y="335" as="sourcePoint" />
            <mxPoint x="706" y="335" as="targetPoint" />
          </mxGeometry>
        </mxCell>
        <mxCell id="cBmr4_ipBIWXXMOxJw-d-35" value="Gọi chức năng xử lý" style="edgeLabel;html=1;align=center;verticalAlign=middle;resizable=0;points=[];fontColor=#0000FF;" vertex="1" connectable="0" parent="cBmr4_ipBIWXXMOxJw-d-34">
          <mxGeometry x="-0.1207" y="-2" relative="1" as="geometry">
            <mxPoint x="8" y="-6" as="offset" />
          </mxGeometry>
        </mxCell>
        <mxCell id="cBmr4_ipBIWXXMOxJw-d-36" value="" style="endArrow=classic;html=1;fontColor=#0000FF;" edge="1" parent="1">
          <mxGeometry width="50" height="50" relative="1" as="geometry">
            <mxPoint x="719" y="336" as="sourcePoint" />
            <mxPoint x="843" y="336" as="targetPoint" />
            <Array as="points">
              <mxPoint x="761" y="336" />
            </Array>
          </mxGeometry>
        </mxCell>
        <mxCell id="cBmr4_ipBIWXXMOxJw-d-37" value="Lưu vào DB" style="edgeLabel;html=1;align=center;verticalAlign=middle;resizable=0;points=[];fontColor=#0000FF;" vertex="1" connectable="0" parent="cBmr4_ipBIWXXMOxJw-d-36">
          <mxGeometry x="-0.0771" y="-2" relative="1" as="geometry">
            <mxPoint x="4" y="-7" as="offset" />
          </mxGeometry>
        </mxCell>
        <mxCell id="cBmr4_ipBIWXXMOxJw-d-38" value="" style="verticalAlign=bottom;endArrow=open;dashed=1;endSize=8;shadow=0;strokeWidth=1;" edge="1" parent="1">
          <mxGeometry x="-1" y="94" relative="1" as="geometry">
            <mxPoint x="719" y="376" as="targetPoint" />
            <mxPoint x="846" y="376" as="sourcePoint" />
            <Array as="points" />
            <mxPoint x="93" y="-81" as="offset" />
          </mxGeometry>
        </mxCell>
        <mxCell id="cBmr4_ipBIWXXMOxJw-d-39" value="Gửi phàn hồi" style="edgeLabel;html=1;align=center;verticalAlign=middle;resizable=0;points=[];fontColor=#0000FF;" vertex="1" connectable="0" parent="1">
          <mxGeometry x="790" y="289" as="geometry">
            <mxPoint x="-9" y="81" as="offset" />
          </mxGeometry>
        </mxCell>
        <mxCell id="cBmr4_ipBIWXXMOxJw-d-40" value="" style="verticalAlign=bottom;endArrow=open;dashed=1;endSize=8;shadow=0;strokeWidth=1;" edge="1" parent="1">
          <mxGeometry x="-0.476" y="-61" relative="1" as="geometry">
            <mxPoint x="9" y="378" as="targetPoint" />
            <mxPoint x="708" y="378" as="sourcePoint" />
            <Array as="points" />
            <mxPoint as="offset" />
          </mxGeometry>
        </mxCell>
        <mxCell id="cBmr4_ipBIWXXMOxJw-d-41" value="Gửi phàn hồi" style="edgeLabel;html=1;align=center;verticalAlign=middle;resizable=0;points=[];fontColor=#0000FF;" vertex="1" connectable="0" parent="cBmr4_ipBIWXXMOxJw-d-40">
          <mxGeometry x="-0.0307" y="2" relative="1" as="geometry">
            <mxPoint y="-7" as="offset" />
          </mxGeometry>
        </mxCell>
      </root>
    </mxGraphModel>
  </diagram>
  <diagram id="ga1owYmu8c5HDApW5XCJ" name="Page-2">
    <mxGraphModel dx="1209" dy="637" grid="1" gridSize="10" guides="1" tooltips="1" connect="1" arrows="1" fold="1" page="1" pageScale="1" pageWidth="827" pageHeight="1169" math="0" shadow="0">
      <root>
        <mxCell id="XqP1R1eLAmoZt-BykoHl-0" />
        <mxCell id="XqP1R1eLAmoZt-BykoHl-1" parent="XqP1R1eLAmoZt-BykoHl-0" />
        <mxCell id="rtHlPLIsOT23S9XEPeoi-0" value="Doctor" style="shape=umlLifeline;perimeter=lifelinePerimeter;container=1;collapsible=0;recursiveResize=0;rounded=0;shadow=0;strokeWidth=1;fillColor=#dae8fc;strokeColor=#6c8ebf;" vertex="1" parent="XqP1R1eLAmoZt-BykoHl-1">
          <mxGeometry x="10" y="40" width="100" height="440" as="geometry" />
        </mxCell>
        <mxCell id="rtHlPLIsOT23S9XEPeoi-1" value="" style="points=[];perimeter=orthogonalPerimeter;rounded=0;shadow=0;strokeWidth=1;fontColor=#0000FF;" vertex="1" parent="rtHlPLIsOT23S9XEPeoi-0">
          <mxGeometry x="45" y="70" width="10" height="320" as="geometry" />
        </mxCell>
        <mxCell id="rtHlPLIsOT23S9XEPeoi-2" value="DBBacsiNhan" style="shape=umlLifeline;perimeter=lifelinePerimeter;container=1;collapsible=0;recursiveResize=0;rounded=0;shadow=0;strokeWidth=1;fillColor=#dae8fc;strokeColor=#6c8ebf;" vertex="1" parent="XqP1R1eLAmoZt-BykoHl-1">
          <mxGeometry x="715" y="40" width="100" height="409" as="geometry" />
        </mxCell>
        <mxCell id="rtHlPLIsOT23S9XEPeoi-3" value="" style="points=[];perimeter=orthogonalPerimeter;rounded=0;shadow=0;strokeWidth=1;fontColor=#0000FF;" vertex="1" parent="rtHlPLIsOT23S9XEPeoi-2">
          <mxGeometry x="45" y="130" width="10" height="40" as="geometry" />
        </mxCell>
        <mxCell id="vM1uDHKmFDHcnqCtG_FX-21" value="" style="points=[];perimeter=orthogonalPerimeter;rounded=0;shadow=0;strokeWidth=1;fontColor=#0000FF;" vertex="1" parent="rtHlPLIsOT23S9XEPeoi-2">
          <mxGeometry x="45" y="300" width="10" height="40" as="geometry" />
        </mxCell>
        <mxCell id="rtHlPLIsOT23S9XEPeoi-4" value="ThemBenhNhan" style="shape=umlLifeline;perimeter=lifelinePerimeter;container=1;collapsible=0;recursiveResize=0;rounded=0;shadow=0;strokeWidth=1;fillColor=#dae8fc;strokeColor=#6c8ebf;" vertex="1" parent="XqP1R1eLAmoZt-BykoHl-1">
          <mxGeometry x="490" y="40" width="100" height="409" as="geometry" />
        </mxCell>
        <mxCell id="rtHlPLIsOT23S9XEPeoi-5" value="" style="points=[];perimeter=orthogonalPerimeter;rounded=0;shadow=0;strokeWidth=1;fontColor=#0000FF;" vertex="1" parent="rtHlPLIsOT23S9XEPeoi-4">
          <mxGeometry x="45" y="110" width="10" height="80" as="geometry" />
        </mxCell>
        <mxCell id="vM1uDHKmFDHcnqCtG_FX-18" value="" style="points=[];perimeter=orthogonalPerimeter;rounded=0;shadow=0;strokeWidth=1;fontColor=#0000FF;" vertex="1" parent="rtHlPLIsOT23S9XEPeoi-4">
          <mxGeometry x="45" y="280" width="10" height="80" as="geometry" />
        </mxCell>
        <mxCell id="rtHlPLIsOT23S9XEPeoi-6" value="VOption" style="shape=umlLifeline;perimeter=lifelinePerimeter;container=1;collapsible=0;recursiveResize=0;rounded=0;shadow=0;strokeWidth=1;fillColor=#dae8fc;strokeColor=#6c8ebf;" vertex="1" parent="XqP1R1eLAmoZt-BykoHl-1">
          <mxGeometry x="260" y="40" width="100" height="440" as="geometry" />
        </mxCell>
        <mxCell id="rtHlPLIsOT23S9XEPeoi-7" value="" style="points=[];perimeter=orthogonalPerimeter;rounded=0;shadow=0;strokeWidth=1;fontColor=#0000FF;" vertex="1" parent="rtHlPLIsOT23S9XEPeoi-6">
          <mxGeometry x="45" y="70" width="10" height="170" as="geometry" />
        </mxCell>
        <mxCell id="vM1uDHKmFDHcnqCtG_FX-15" value="" style="points=[];perimeter=orthogonalPerimeter;rounded=0;shadow=0;strokeWidth=1;fontColor=#0000FF;" vertex="1" parent="rtHlPLIsOT23S9XEPeoi-6">
          <mxGeometry x="45" y="270" width="10" height="120" as="geometry" />
        </mxCell>
        <mxCell id="pORTpHFMnBlMqIqO0Wr5-0" value="" style="endArrow=classic;html=1;fontColor=#0000FF;" edge="1" parent="XqP1R1eLAmoZt-BykoHl-1" source="rtHlPLIsOT23S9XEPeoi-0" target="rtHlPLIsOT23S9XEPeoi-6">
          <mxGeometry width="50" height="50" relative="1" as="geometry">
            <mxPoint x="100" y="110" as="sourcePoint" />
            <mxPoint x="280" y="110" as="targetPoint" />
            <Array as="points">
              <mxPoint x="220" y="110" />
              <mxPoint x="250" y="110" />
            </Array>
          </mxGeometry>
        </mxCell>
        <mxCell id="pORTpHFMnBlMqIqO0Wr5-1" value="Bấm xem danh sách&amp;nbsp; bệnh nhân&lt;br&gt;nhận thêm" style="edgeLabel;html=1;align=center;verticalAlign=middle;resizable=0;points=[];fontColor=#0000FF;" vertex="1" connectable="0" parent="pORTpHFMnBlMqIqO0Wr5-0">
          <mxGeometry x="-0.0506" relative="1" as="geometry">
            <mxPoint x="1.5" as="offset" />
          </mxGeometry>
        </mxCell>
        <mxCell id="pORTpHFMnBlMqIqO0Wr5-2" value="" style="endArrow=classic;html=1;fontColor=#0000FF;" edge="1" parent="XqP1R1eLAmoZt-BykoHl-1">
          <mxGeometry width="50" height="50" relative="1" as="geometry">
            <mxPoint x="320" y="151" as="sourcePoint" />
            <mxPoint x="530" y="151" as="targetPoint" />
            <Array as="points">
              <mxPoint x="430" y="151" />
            </Array>
          </mxGeometry>
        </mxCell>
        <mxCell id="pORTpHFMnBlMqIqO0Wr5-3" value="Gọi chức năng show&lt;br&gt;&amp;nbsp;danh sách bệnh nhân cần nhận" style="edgeLabel;html=1;align=center;verticalAlign=middle;resizable=0;points=[];fontColor=#0000FF;" vertex="1" connectable="0" parent="pORTpHFMnBlMqIqO0Wr5-2">
          <mxGeometry x="-0.0728" y="-2" relative="1" as="geometry">
            <mxPoint x="15.5" y="-3" as="offset" />
          </mxGeometry>
        </mxCell>
        <mxCell id="pORTpHFMnBlMqIqO0Wr5-4" value="" style="endArrow=classic;html=1;fontColor=#0000FF;entryX=-0.456;entryY=0.239;entryDx=0;entryDy=0;entryPerimeter=0;" edge="1" parent="XqP1R1eLAmoZt-BykoHl-1" source="rtHlPLIsOT23S9XEPeoi-4" target="rtHlPLIsOT23S9XEPeoi-3">
          <mxGeometry width="50" height="50" relative="1" as="geometry">
            <mxPoint x="550" y="160" as="sourcePoint" />
            <mxPoint x="760" y="160" as="targetPoint" />
            <Array as="points">
              <mxPoint x="650" y="180" />
            </Array>
          </mxGeometry>
        </mxCell>
        <mxCell id="pORTpHFMnBlMqIqO0Wr5-5" value="Yêu cầu dữ liệu &lt;br&gt;danh sách bệnh nhân cần nhận" style="edgeLabel;html=1;align=center;verticalAlign=middle;resizable=0;points=[];fontColor=#0000FF;" vertex="1" connectable="0" parent="pORTpHFMnBlMqIqO0Wr5-4">
          <mxGeometry x="-0.1299" y="-2" relative="1" as="geometry">
            <mxPoint x="22.5" y="-22" as="offset" />
          </mxGeometry>
        </mxCell>
        <mxCell id="aedlshAAoUFNrsJfwO1V-0" value="" style="verticalAlign=bottom;endArrow=open;dashed=1;endSize=8;shadow=0;strokeWidth=1;exitX=-0.189;exitY=0.911;exitDx=0;exitDy=0;exitPerimeter=0;" edge="1" parent="XqP1R1eLAmoZt-BykoHl-1" source="rtHlPLIsOT23S9XEPeoi-3">
          <mxGeometry x="-0.4286" y="-70" relative="1" as="geometry">
            <mxPoint x="550" y="206" as="targetPoint" />
            <mxPoint x="690" y="180" as="sourcePoint" />
            <Array as="points" />
            <mxPoint as="offset" />
          </mxGeometry>
        </mxCell>
        <mxCell id="aedlshAAoUFNrsJfwO1V-1" value="Phản hồi dữ liệu&lt;br&gt;danh sách bệnh nhân cần nhận" style="edgeLabel;html=1;align=center;verticalAlign=middle;resizable=0;points=[];fontColor=#0000FF;" vertex="1" connectable="0" parent="aedlshAAoUFNrsJfwO1V-0">
          <mxGeometry x="-0.0812" y="1" relative="1" as="geometry">
            <mxPoint x="-8.11" y="12.559999999999999" as="offset" />
          </mxGeometry>
        </mxCell>
        <mxCell id="FDxP5eMm6T_FoN21cAnG-0" value="" style="verticalAlign=bottom;endArrow=open;dashed=1;endSize=8;shadow=0;strokeWidth=1;" edge="1" parent="XqP1R1eLAmoZt-BykoHl-1">
          <mxGeometry x="1" y="-191" relative="1" as="geometry">
            <mxPoint x="320" y="230" as="targetPoint" />
            <mxPoint x="530" y="230" as="sourcePoint" />
            <Array as="points" />
            <mxPoint x="-169" y="102" as="offset" />
          </mxGeometry>
        </mxCell>
        <mxCell id="FDxP5eMm6T_FoN21cAnG-1" value="Phản hồi dữ liệu&lt;br&gt;danh sách bệnh nhân cần nhận" style="edgeLabel;html=1;align=center;verticalAlign=middle;resizable=0;points=[];fontColor=#0000FF;" vertex="1" connectable="0" parent="FDxP5eMm6T_FoN21cAnG-0">
          <mxGeometry x="0.1005" y="-2" relative="1" as="geometry">
            <mxPoint x="16" y="2" as="offset" />
          </mxGeometry>
        </mxCell>
        <mxCell id="vM1uDHKmFDHcnqCtG_FX-0" value="" style="verticalAlign=bottom;endArrow=open;dashed=1;endSize=8;shadow=0;strokeWidth=1;" edge="1" parent="XqP1R1eLAmoZt-BykoHl-1">
          <mxGeometry x="1" y="-191" relative="1" as="geometry">
            <mxPoint x="70" y="270" as="targetPoint" />
            <mxPoint x="300" y="270" as="sourcePoint" />
            <Array as="points" />
            <mxPoint x="-169" y="102" as="offset" />
          </mxGeometry>
        </mxCell>
        <mxCell id="vM1uDHKmFDHcnqCtG_FX-1" value="Hiển thị danh sách bệnh nhân&lt;br&gt;cần nhận" style="edgeLabel;html=1;align=center;verticalAlign=middle;resizable=0;points=[];fontColor=#0000FF;" vertex="1" connectable="0" parent="vM1uDHKmFDHcnqCtG_FX-0">
          <mxGeometry x="0.2862" y="3" relative="1" as="geometry">
            <mxPoint x="30.01" y="-23" as="offset" />
          </mxGeometry>
        </mxCell>
        <mxCell id="vM1uDHKmFDHcnqCtG_FX-16" value="" style="endArrow=classic;html=1;fontColor=#0000FF;" edge="1" parent="XqP1R1eLAmoZt-BykoHl-1">
          <mxGeometry width="50" height="50" relative="1" as="geometry">
            <mxPoint x="70" y="310" as="sourcePoint" />
            <mxPoint x="310" y="310" as="targetPoint" />
            <Array as="points">
              <mxPoint x="220.5" y="310" />
              <mxPoint x="250.5" y="310" />
            </Array>
          </mxGeometry>
        </mxCell>
        <mxCell id="vM1uDHKmFDHcnqCtG_FX-17" value="Chọn bệnh nhân trong danh sách&lt;br&gt;và bấm &quot;chọn&quot;" style="edgeLabel;html=1;align=center;verticalAlign=middle;resizable=0;points=[];fontColor=#0000FF;" vertex="1" connectable="0" parent="vM1uDHKmFDHcnqCtG_FX-16">
          <mxGeometry x="-0.0506" relative="1" as="geometry">
            <mxPoint x="1.5" as="offset" />
          </mxGeometry>
        </mxCell>
        <mxCell id="vM1uDHKmFDHcnqCtG_FX-19" value="" style="endArrow=classic;html=1;fontColor=#0000FF;" edge="1" parent="XqP1R1eLAmoZt-BykoHl-1">
          <mxGeometry width="50" height="50" relative="1" as="geometry">
            <mxPoint x="320" y="330" as="sourcePoint" />
            <mxPoint x="530" y="330" as="targetPoint" />
            <Array as="points">
              <mxPoint x="430" y="330" />
            </Array>
          </mxGeometry>
        </mxCell>
        <mxCell id="vM1uDHKmFDHcnqCtG_FX-20" value="Gọi chức năng nhận bệnh nhân" style="edgeLabel;html=1;align=center;verticalAlign=middle;resizable=0;points=[];fontColor=#0000FF;" vertex="1" connectable="0" parent="vM1uDHKmFDHcnqCtG_FX-19">
          <mxGeometry x="-0.0728" y="-2" relative="1" as="geometry">
            <mxPoint x="15.5" y="-3" as="offset" />
          </mxGeometry>
        </mxCell>
        <mxCell id="vM1uDHKmFDHcnqCtG_FX-22" value="" style="endArrow=classic;html=1;fontColor=#0000FF;entryX=-0.456;entryY=0.239;entryDx=0;entryDy=0;entryPerimeter=0;" edge="1" parent="XqP1R1eLAmoZt-BykoHl-1">
          <mxGeometry width="50" height="50" relative="1" as="geometry">
            <mxPoint x="549.5" y="340.44" as="sourcePoint" />
            <mxPoint x="765.44" y="339.99999999999994" as="targetPoint" />
            <Array as="points">
              <mxPoint x="660" y="340.44" />
            </Array>
          </mxGeometry>
        </mxCell>
        <mxCell id="vM1uDHKmFDHcnqCtG_FX-23" value="Lưu bệnh nhân được chọn&lt;br&gt;vào danh sách chờ" style="edgeLabel;html=1;align=center;verticalAlign=middle;resizable=0;points=[];fontColor=#0000FF;" vertex="1" connectable="0" parent="vM1uDHKmFDHcnqCtG_FX-22">
          <mxGeometry x="-0.1299" y="-2" relative="1" as="geometry">
            <mxPoint x="22.5" y="-22" as="offset" />
          </mxGeometry>
        </mxCell>
        <mxCell id="vM1uDHKmFDHcnqCtG_FX-24" value="" style="verticalAlign=bottom;endArrow=open;dashed=1;endSize=8;shadow=0;strokeWidth=1;exitX=-0.189;exitY=0.911;exitDx=0;exitDy=0;exitPerimeter=0;" edge="1" parent="XqP1R1eLAmoZt-BykoHl-1">
          <mxGeometry x="-0.4286" y="-70" relative="1" as="geometry">
            <mxPoint x="550" y="380" as="targetPoint" />
            <mxPoint x="758.1099999999999" y="380.44000000000005" as="sourcePoint" />
            <Array as="points" />
            <mxPoint as="offset" />
          </mxGeometry>
        </mxCell>
        <mxCell id="vM1uDHKmFDHcnqCtG_FX-25" value="Phản hồi thành công" style="edgeLabel;html=1;align=center;verticalAlign=middle;resizable=0;points=[];fontColor=#0000FF;" vertex="1" connectable="0" parent="vM1uDHKmFDHcnqCtG_FX-24">
          <mxGeometry x="-0.0812" y="1" relative="1" as="geometry">
            <mxPoint x="-8.11" y="-1.240000000000002" as="offset" />
          </mxGeometry>
        </mxCell>
        <mxCell id="vM1uDHKmFDHcnqCtG_FX-26" value="" style="verticalAlign=bottom;endArrow=open;dashed=1;endSize=8;shadow=0;strokeWidth=1;" edge="1" parent="XqP1R1eLAmoZt-BykoHl-1">
          <mxGeometry x="-0.4286" y="-70" relative="1" as="geometry">
            <mxPoint x="315" y="400" as="targetPoint" />
            <mxPoint x="530" y="400" as="sourcePoint" />
            <Array as="points" />
            <mxPoint as="offset" />
          </mxGeometry>
        </mxCell>
        <mxCell id="vM1uDHKmFDHcnqCtG_FX-27" value="Phản hồi thành công" style="edgeLabel;html=1;align=center;verticalAlign=middle;resizable=0;points=[];fontColor=#0000FF;" vertex="1" connectable="0" parent="vM1uDHKmFDHcnqCtG_FX-26">
          <mxGeometry x="-0.0812" y="1" relative="1" as="geometry">
            <mxPoint x="-8.11" y="-1.0000000000000018" as="offset" />
          </mxGeometry>
        </mxCell>
        <mxCell id="vM1uDHKmFDHcnqCtG_FX-28" value="" style="verticalAlign=bottom;endArrow=open;dashed=1;endSize=8;shadow=0;strokeWidth=1;" edge="1" parent="XqP1R1eLAmoZt-BykoHl-1">
          <mxGeometry x="-0.4286" y="-70" relative="1" as="geometry">
            <mxPoint x="65" y="420" as="targetPoint" />
            <mxPoint x="300" y="420" as="sourcePoint" />
            <Array as="points" />
            <mxPoint as="offset" />
          </mxGeometry>
        </mxCell>
        <mxCell id="vM1uDHKmFDHcnqCtG_FX-29" value="Phản hồi thành công" style="edgeLabel;html=1;align=center;verticalAlign=middle;resizable=0;points=[];fontColor=#0000FF;" vertex="1" connectable="0" parent="vM1uDHKmFDHcnqCtG_FX-28">
          <mxGeometry x="-0.0812" y="1" relative="1" as="geometry">
            <mxPoint x="-8.11" y="-1.0000000000000018" as="offset" />
          </mxGeometry>
        </mxCell>
      </root>
    </mxGraphModel>
  </diagram>
</mxfile>
